<svg xmlns="http://www.w3.org/2000/svg" viewBox="0 0 32 32" id="youtube"><path fill="#999" d="M16-.005c-8.837 0-16 7.163-16 16 0 8.836 7.163 16 16 16s16-7.164 16-16c0-8.837-7.163-16-16-16z"></path><path fill="#FFF" d="M15.997 15.202c0-.001 6.331.009 7.082.76.754.752.763 4.462.763 4.483 0 0-.006 3.73-.763 4.484-.752.749-7.082.766-7.082.766s-6.33-.016-7.083-.766c-.754-.752-.755-4.456-.755-4.484 0-.021.002-3.731.755-4.483.753-.75 7.083-.76 7.083-.76z"></path><path fill="#999" d="M22.491 21.325v-1.186c0-.441-.112-.779-.336-1.014-.225-.235-.547-.353-.966-.353-.41 0-.743.127-1.002.381-.258.254-.389.584-.389.986v2.089c0 .449.12.801.354 1.055.235.256.559.383.968.383.455 0 .798-.12 1.026-.36.231-.243.344-.602.344-1.079v-.239h-.94v.212c0 .275-.032.451-.092.531-.06.08-.166.12-.318.12-.146 0-.248-.046-.31-.141-.059-.095-.089-.265-.089-.51v-.875h1.75zm-1.75-.726v-.47c0-.195.031-.335.094-.417.064-.087.169-.128.314-.128.139 0 .242.041.303.128.064.082.097.222.097.417v.47h-.808zM19.09 19.126c-.152-.197-.373-.296-.663-.296a.882.882 0 00-.422.111 1.41 1.41 0 00-.392.323v-2.031h-.924v6.306h.924v-.357c.119.144.251.247.391.315.139.068.298.101.478.101.271 0 .48-.086.622-.263.144-.176.215-.428.215-.757v-2.582c0-.381-.075-.672-.229-.87zm-.712 3.323c0 .15-.028.255-.08.32-.052.067-.134.099-.246.099a.514.514 0 01-.221-.05.783.783 0 01-.218-.164v-2.899a.66.66 0 01.189-.142.434.434 0 01.194-.045c.123 0 .219.04.285.121.064.081.097.201.097.357v2.403zM15.087 23.538v-.511c-.17.189-.345.333-.529.431-.183.1-.36.148-.531.148-.212 0-.369-.068-.478-.208-.105-.139-.16-.345-.16-.623v-3.89h.914v3.568c0 .111.019.19.056.24.04.05.103.074.188.074a.504.504 0 00.256-.099c.103-.066.197-.148.284-.249v-3.534H16v4.653h-.913zM11.921 18.149v5.389h-1.032v-5.389H9.823v-.916h3.164v.916z"></path><path fill="#FFF" d="M21.146 13.251h-1.03v-.566a2.168 2.168 0 01-.592.476 1.27 1.27 0 01-.597.164c-.24 0-.418-.077-.538-.229-.12-.153-.181-.381-.181-.687V8.126h1.028v3.929c0 .121.024.209.067.263.042.055.113.082.209.082a.588.588 0 00.287-.108c.115-.072.222-.164.317-.276v-3.89h1.03v5.125zM16.965 8.369c-.273-.248-.623-.373-1.049-.373-.467 0-.841.118-1.117.353-.278.235-.417.551-.416.949v2.656c0 .436.136.782.405 1.04.271.257.632.386 1.082.386.469 0 .835-.125 1.104-.374.266-.25.399-.593.399-1.031V9.327a1.245 1.245 0 00-.408-.958zm-.642 3.683a.432.432 0 01-.123.324.464.464 0 01-.332.117c-.137 0-.242-.038-.314-.115a.458.458 0 01-.111-.326V9.26c0-.112.04-.203.118-.272a.449.449 0 01.307-.103c.135 0 .245.034.329.103.084.069.126.16.126.272v2.792zM11.578 6.305H10.41l1.38 4.194v2.752h1.16v-2.882l1.349-4.064H13.12l-.716 2.776h-.073z"></path></svg>